# xmcd
#
# Track frame offsets: 
#        150
#        13825
#        23859
#        42276
#        60138
#        74506
#        83118
#        98641
#        127169
#        147940
#        164485
#        182189
#        193712
#        215152
#        229563
#        243394
#        266326
#        277826
#        293102
#        301657
#        316742
#
# Disc length: 4264 seconds
#
# Revision: 0
# Processed by: cddbd v1.4PL0 Copyright (c) Steve Scherf et al.
# Submitted via: ExactAudioCopy v0.90a11
#
DISCID=2710a615
DTITLE=Various Artist - Down to the Promised Land: 5 Years of Bloodsh
DTITLE=ot Records [CD2]
DYEAR=1900
DGENRE=
TTITLE0=Robbie Fulks - Bloodshot's Turning 5
TTITLE1=The Cornell Hurd Band - Here Comes My Ball And Chain Again
TTITLE2=Graham Parker w/ The Waco Brothers - See Willy Fly By
TTITLE3=Nora O'Connor - Looks Like I'm Up Shit Creek Again
TTITLE4=The Sadies - Milk And Scissors
TTITLE5=Duane Jarvis - Broken A/C Blues
TTITLE6=Rex Hobart and the Misery Boys - Wicked Saviour
TTITLE7=Andre Williams and Sally Timms - Glue
TTITLE8=Bare Jr - Guitar Playin' Woman
TTITLE9=Giant Sand - Hard On Things
TTITLE10=Ryan Adams - Monday Night
TTITLE11=Trailer Bride - Ghost On The Highway
TTITLE12=Mike Ireland - I'd Like To
TTITLE13=Kelly Hogan and The Pine Valley Cosmonauts - 13 Nights
TTITLE14=Grievous Angels - Hang Your Head In Shame
TTITLE15=Chris Miles and Deanna Varagona - Last To Know
TTITLE16=The Unholy Trio - Bring The Noise
TTITLE17=Chip Taylor w/ Jon Langford - Brixton
TTITLE18=Split Lip Rayfield - Train Song
TTITLE19=Red Star Belgrade - Highway To Hell
TTITLE20=Hey cool -- a hidden track!
EXTD=
EXTT0=
EXTT1=
EXTT2=
EXTT3=
EXTT4=
EXTT5=
EXTT6=
EXTT7=
EXTT8=
EXTT9=
EXTT10=
EXTT11=
EXTT12=
EXTT13=
EXTT14=
EXTT15=
EXTT16=
EXTT17=
EXTT18=
EXTT19=
EXTT20=
PLAYORDER=
